<svg width="172" height="172" viewBox="0 0 172 172" fill="none" xmlns="http://www.w3.org/2000/svg">
<path d="M58.8548 84.0781C58.8548 70.7911 65.0924 58.9625 74.7799 51.3473L59.9525 27.6149C47.5261 36.5398 38.1757 49.4573 33.7643 64.4939C40.6701 68.9387 45.2498 76.7052 45.2498 85.532C45.2498 94.0459 41.017 101.552 34.5193 106.07C39.2622 120.313 48.5046 132.506 60.5608 140.968L74.3504 116.442C64.902 108.83 58.8548 97.1591 58.8548 84.0781Z" fill="#FFAD2A"/>
<path d="M38.2412 85.5317C38.2412 95.4608 30.1777 103.516 20.2511 103.516C10.3195 103.516 2.26196 95.4611 2.26196 85.5317C2.26196 75.6074 10.3195 67.5527 20.2511 67.5527C30.1777 67.5527 38.2412 75.6074 38.2412 85.5317Z" fill="#FFAD2A"/>
<path d="M139.258 129.02C143.441 129.02 147.38 130.044 150.841 131.861C161.621 120.5 168.586 105.51 169.738 88.9056L141.8 88.365C139.649 109.319 121.947 125.643 100.431 125.643C94.4757 125.643 88.7923 124.39 83.6636 122.125L69.7756 146.423C79.034 150.978 89.4275 153.538 100.431 153.538C105.179 153.538 109.836 153.057 114.323 152.141C115.28 139.218 126.076 129.02 139.258 129.02Z" fill="#FFAD2A"/>
<path d="M157.237 154.021C157.237 163.948 149.19 172 139.258 172C129.325 172 121.273 163.948 121.273 154.021C121.273 144.087 129.325 136.037 139.258 136.037C149.19 136.037 157.237 144.087 157.237 154.021Z" fill="#FFAD2A"/>
<path d="M152.754 38.3974C148.683 41.2798 143.702 42.9858 138.323 42.9858C124.506 42.9858 113.319 31.7955 113.319 17.987C113.319 17.2536 113.352 16.5442 113.406 15.8324C109.205 15.0282 104.865 14.6155 100.431 14.6155C89.3253 14.6155 78.8228 17.2292 69.5152 21.858L83.3216 46.1719C88.5431 43.8196 94.3345 42.4964 100.431 42.4964C121.756 42.4964 139.333 58.5571 141.735 79.2421L169.673 78.3892C168.44 63.1358 162.262 49.2802 152.754 38.3974Z" fill="#FFAD2A"/>
<path d="M156.297 17.9873C156.297 27.9192 148.266 35.9716 138.323 35.9716C128.392 35.9716 120.339 27.9192 120.339 17.9873C120.339 8.05476 128.391 0 138.323 0C148.266 0 156.297 8.05476 156.297 17.9873Z" fill="#FFAD2A"/>
</svg>
