<svg xmlns="http://www.w3.org/2000/svg" version="1.1" xmlns:xlink="http://www.w3.org/1999/xlink" width="75" height="75"><svg width="75" height="75" viewBox="0 0 75 75" fill="none" xmlns="http://www.w3.org/2000/svg">
<path d="M37.5 1.5C57.3823 1.5 73.5 17.6177 73.5 37.5C73.5 57.3823 57.3823 73.5 37.5 73.5C17.6177 73.5 1.5 57.3823 1.5 37.5C1.5 17.6177 17.6177 1.5 37.5 1.5Z" fill="url(#paint0_linear_88_75)" stroke="url(#paint1_linear_88_75)" stroke-width="3"></path>
<path d="M21.1496 19C21.5605 19 21.997 19.1325 22.3322 19.4678C22.6675 19.803 22.8 20.2395 22.8 20.6504V33.0742L33.3693 19.875L33.3752 19.8672L33.382 19.8594C33.8108 19.345 34.4867 19 35.2004 19H51.3498C55.555 19 58.7908 20.512 60.9699 22.8564C63.1351 25.1861 64.2003 28.2754 64.2004 31.3496C64.2004 37.0813 60.4355 42.9449 52.8859 43.5967H52.883C52.2307 43.651 51.3278 43.6504 49.9504 43.6504H47.2004C47.0203 43.6504 46.9365 43.7083 46.8976 43.748C46.8551 43.7917 46.8 43.882 46.8 44.0498V54.3496C46.8 54.3696 46.7977 54.39 46.7971 54.4102C46.8735 54.6767 46.8911 55.0124 46.6935 55.3584C46.3568 55.9476 45.7162 55.9999 45.4504 56H39.55C38.8362 56 38.1604 55.6551 37.7316 55.1406L37.718 55.123L37.7043 55.1064L29.2043 43.9561L29.2053 43.9551C28.6149 43.2109 28.8029 42.2489 29.2678 41.6768L32.0178 38.2266L32.0246 38.2178L32.0314 38.21C32.2996 37.8882 32.7122 37.625 33.2189 37.625C33.7176 37.6251 34.1274 37.8825 34.3879 38.2373L34.3898 38.2363L38.8 43.916V37.6504C38.8 37.2395 38.9325 36.803 39.2678 36.4678C39.603 36.1325 40.0395 36 40.4504 36H51.3498C52.9796 36 54.1241 35.4015 54.8703 34.5625C55.6328 33.7049 56.0341 32.5325 56.0314 31.3271C56.0288 30.122 55.6228 28.9483 54.8576 28.0889C54.1084 27.2476 52.9653 26.6504 51.3498 26.6504H40.4504C40.0395 26.6504 39.603 26.5169 39.2678 26.1816C38.9463 25.86 38.8123 25.4457 38.8019 25.0498L23.4816 44.2734L23.4728 44.2852L23.4631 44.2959C23.0733 44.7567 22.8 45.5253 22.8 46.1504V54.3496C22.8 54.7605 22.6675 55.197 22.3322 55.5322C21.997 55.8675 21.5605 56 21.1496 56H16.4504C16.0395 56 15.603 55.8675 15.2678 55.5322C14.9325 55.197 14.8 54.7605 14.8 54.3496V20.6504C14.8 20.2395 14.9325 19.803 15.2678 19.4678C15.603 19.1325 16.0395 19 16.4504 19H21.1496Z" stroke="white" stroke-width="2"></path>
<defs>
<linearGradient id="SvgjsLinearGradient1022" x1="37.5" y1="0" x2="37.5" y2="75" gradientUnits="userSpaceOnUse">
<stop stop-color="#2EC8DB"></stop>
<stop offset="1" stop-color="#532670"></stop>
</linearGradient>
<linearGradient id="SvgjsLinearGradient1021" x1="72.375" y1="4.00001" x2="-9.2953" y2="48.3668" gradientUnits="userSpaceOnUse">
<stop stop-color="#AC38D5"></stop>
<stop offset="1" stop-color="#4CF0F0"></stop>
</linearGradient>
</defs>
</svg><style>@media (prefers-color-scheme: light) { :root { filter: none; } }
@media (prefers-color-scheme: dark) { :root { filter: none; } }
</style></svg>